<svg version="1.1" width="7998" height="4493" xmlns="http://www.w3.org/2000/svg">
<rect x="0" y="0" width="7998" height="4493" fill="#717854" />
<g transform="scale(31.2422, 31.4196)">
<path d="M 271 94 L 235 158 L 102 50 Z" fill="#fffbf4" fill-opacity="0.501961" />
<path d="M 4 158 L 181 121 L -16 35 Z" fill="#325a1d" fill-opacity="0.501961" />
<path d="M -6 20 L 112 -16 L 235 14 Z" fill="#2a161d" fill-opacity="0.501961" />
<path d="M 43 50 L 98 48 L 128 70 Z" fill="#fff8e6" fill-opacity="0.501961" />
<path d="M 198 158 L 149 59 L 271 138 Z" fill="#f0cab8" fill-opacity="0.501961" />
<path d="M 271 114 L 136 -16 L 271 -16 Z" fill="#424425" fill-opacity="0.501961" />
<path d="M 123 49 L 131 3 L 142 47 Z" fill="#000000" fill-opacity="0.501961" />
<path d="M 3 41 L 83 59 L 47 39 Z" fill="#f9e3cd" fill-opacity="0.501961" />
<path d="M 142 31 L 163 16 L 172 33 Z" fill="#fde4ff" fill-opacity="0.501961" />
<path d="M 102 -2 L 136 60 L 25 40 Z" fill="#6b824b" fill-opacity="0.501961" />
<path d="M 189 156 L 173 103 L 138 77 Z" fill="#3c5921" fill-opacity="0.501961" />
<path d="M 271 99 L 195 158 L 167 61 Z" fill="#dabfab" fill-opacity="0.501961" />
<path d="M 148 28 L 157 61 L 242 79 Z" fill="#364c2f" fill-opacity="0.501961" />
<path d="M 108 64 L -15 46 L 204 158 Z" fill="#5a723c" fill-opacity="0.501961" />
<path d="M 155 66 L 178 10 L 261 48 Z" fill="#697c4b" fill-opacity="0.501961" />
<path d="M 172 9 L 215 -16 L 242 21 Z" fill="#2b1920" fill-opacity="0.501961" />
<path d="M 154 33 L 169 36 L 157 65 Z" fill="#100534" fill-opacity="0.501961" />
<path d="M 191 103 L 217 76 L 87 53 Z" fill="#e2c9b6" fill-opacity="0.501961" />
<path d="M 141 14 L -16 18 L 18 -16 Z" fill="#4c3d3b" fill-opacity="0.501961" />
<path d="M 137 26 L 126 22 L 135 64 Z" fill="#00000b" fill-opacity="0.501961" />
<path d="M 189 153 L 7 158 L -16 103 Z" fill="#3f5828" fill-opacity="0.501961" />
<path d="M 168 135 L 108 126 L 153 97 Z" fill="#857154" fill-opacity="0.501961" />
<path d="M -16 33 L 20 41 L 3 43 Z" fill="#ffe5d5" fill-opacity="0.501961" />
<path d="M 143 40 L 134 14 L 155 13 Z" fill="#867d5b" fill-opacity="0.501961" />
<path d="M 271 71 L 271 100 L 195 67 Z" fill="#415e27" fill-opacity="0.501961" />
<path d="M 30 41 L 124 57 L 126 13 Z" fill="#768955" fill-opacity="0.501961" />
<path d="M 159 61 L 197 157 L 271 135 Z" fill="#ccbca8" fill-opacity="0.501961" />
<path d="M 80 15 L 43 18 L 74 -16 Z" fill="#212b1a" fill-opacity="0.501961" />
<path d="M 61 57 L 23 44 L 68 47 Z" fill="#e3cfbb" fill-opacity="0.501961" />
<path d="M 128 56 L 83 56 L 128 71 Z" fill="#ecd4c4" fill-opacity="0.501961" />
<path d="M 147 28 L 157 17 L 170 24 Z" fill="#e8dae9" fill-opacity="0.501961" />
<path d="M 170 18 L 82 -1 L 90 24 Z" fill="#685e4a" fill-opacity="0.501961" />
<path d="M 97 61 L 161 93 L -16 94 Z" fill="#4f6e38" fill-opacity="0.501961" />
<path d="M 143 56 L 137 20 L 157 33 Z" fill="#8f8660" fill-opacity="0.501961" />
<path d="M 127 21 L 121 27 L 121 38 Z" fill="#f7c4be" fill-opacity="0.501961" />
<path d="M 28 -2 L -8 34 L 51 45 Z" fill="#6a784b" fill-opacity="0.501961" />
<path d="M 240 63 L 166 64 L 169 9 Z" fill="#6a7749" fill-opacity="0.501961" />
<path d="M 136 70 L 125 47 L 138 47 Z" fill="#635059" fill-opacity="0.501961" />
<path d="M 164 -16 L 102 13 L 247 10 Z" fill="#3d312e" fill-opacity="0.501961" />
<path d="M 236 158 L 215 77 L 271 101 Z" fill="#cab19e" fill-opacity="0.501961" />
<path d="M 157 67 L 168 57 L 163 35 Z" fill="#2d3245" fill-opacity="0.501961" />
<path d="M 151 13 L 209 13 L 186 29 Z" fill="#7a7252" fill-opacity="0.501961" />
<path d="M 48 134 L 137 126 L 128 158 Z" fill="#455e30" fill-opacity="0.501961" />
<path d="M 251 38 L 165 30 L 175 53 Z" fill="#738751" fill-opacity="0.501961" />
<path d="M 120 69 L 140 59 L 155 62 Z" fill="#ebcbb6" fill-opacity="0.501961" />
<path d="M 258 33 L 219 22 L 180 32 Z" fill="#3b5528" fill-opacity="0.501961" />
<path d="M 95 55 L 64 57 L 59 47 Z" fill="#f0d6c8" fill-opacity="0.501961" />
<path d="M 152 122 L 145 156 L 140 129 Z" fill="#ad836e" fill-opacity="0.501961" />
<path d="M -2 42 L 23 84 L 78 61 Z" fill="#58773e" fill-opacity="0.501961" />
<path d="M 135 77 L 171 103 L 184 158 Z" fill="#57693c" fill-opacity="0.501961" />
<path d="M 206 74 L 160 64 L 173 108 Z" fill="#d6c6b1" fill-opacity="0.501961" />
<path d="M 259 83 L 194 47 L 182 67 Z" fill="#526a38" fill-opacity="0.501961" />
<path d="M 134 21 L 140 44 L 125 45 Z" fill="#05000c" fill-opacity="0.501961" />
<path d="M 106 64 L 173 158 L 187 129 Z" fill="#696d44" fill-opacity="0.501961" />
<path d="M 193 13 L 247 25 L 177 29 Z" fill="#717447" fill-opacity="0.501961" />
<path d="M 271 154 L 184 149 L 205 76 Z" fill="#cebca7" fill-opacity="0.501961" />
<path d="M 143 15 L 138 60 L 153 33 Z" fill="#778255" fill-opacity="0.501961" />
<path d="M 122 -12 L 89 13 L 89 -9 Z" fill="#886d62" fill-opacity="0.501961" />
<path d="M 64 48 L 121 31 L 6 33 Z" fill="#748a54" fill-opacity="0.501961" />
<path d="M 155 32 L 162 33 L 153 22 Z" fill="#efdff6" fill-opacity="0.501961" />
<path d="M 244 24 L 214 -9 L 271 3 Z" fill="#5e433e" fill-opacity="0.501961" />
<path d="M 58 30 L 85 52 L 126 56 Z" fill="#6a824c" fill-opacity="0.501961" />
<path d="M 6 43 L 31 48 L 27 41 Z" fill="#e2ceb8" fill-opacity="0.501961" />
<path d="M 134 20 L 126 19 L 123 22 Z" fill="#ae9a84" fill-opacity="0.501961" />
<path d="M -14 -6 L 28 23 L 36 -16 Z" fill="#725657" fill-opacity="0.501961" />
<path d="M 147 66 L 200 78 L 208 158 Z" fill="#d6c5b0" fill-opacity="0.501961" />
<path d="M 172 68 L 169 64 L 160 70 Z" fill="#9d897d" fill-opacity="0.501961" />
<path d="M 159 105 L 143 107 L 119 79 Z" fill="#857c53" fill-opacity="0.501961" />
<path d="M 149 92 L 49 145 L -16 87 Z" fill="#4c6937" fill-opacity="0.501961" />
<path d="M 21 39 L -16 20 L 95 17 Z" fill="#667f47" fill-opacity="0.501961" />
<path d="M 166 60 L 165 38 L 149 51 Z" fill="#2a3235" fill-opacity="0.501961" />
<path d="M 256 43 L 257 95 L 244 88 Z" fill="#455429" fill-opacity="0.501961" />
<path d="M 164 11 L 149 15 L 160 8 Z" fill="#8f6d5f" fill-opacity="0.501961" />
<path d="M 121 30 L 128 51 L 69 35 Z" fill="#7e895b" fill-opacity="0.501961" />
<path d="M 209 61 L 241 67 L 271 27 Z" fill="#6b5f41" fill-opacity="0.501961" />
<path d="M 170 32 L 170 62 L 155 66 Z" fill="#4b4c48" fill-opacity="0.501961" />
<path d="M 108 147 L 162 158 L 148 138 Z" fill="#ad896f" fill-opacity="0.501961" />
<path d="M 102 32 L 105 -16 L 95 13 Z" fill="#564b3c" fill-opacity="0.501961" />
<path d="M 163 110 L 183 158 L 185 132 Z" fill="#486335" fill-opacity="0.501961" />
<path d="M 138 27 L 126 30 L 136 60 Z" fill="#151318" fill-opacity="0.501961" />
<path d="M 131 19 L 96 21 L 116 26 Z" fill="#56643f" fill-opacity="0.501961" />
<path d="M 136 48 L 152 46 L 154 31 Z" fill="#95805d" fill-opacity="0.501961" />
<path d="M 152 61 L 150 35 L 133 57 Z" fill="#78895b" fill-opacity="0.501961" />
<path d="M -11 -1 L -16 22 L 9 17 Z" fill="#3a2727" fill-opacity="0.501961" />
<path d="M 71 58 L 87 53 L 103 60 Z" fill="#e4cfbd" fill-opacity="0.501961" />
<path d="M 140 19 L 147 35 L 152 12 Z" fill="#646c49" fill-opacity="0.501961" />
<path d="M 162 77 L 158 75 L 161 62 Z" fill="#cec0ad" fill-opacity="0.501961" />
<path d="M -16 150 L 3 84 L 29 156 Z" fill="#405727" fill-opacity="0.501961" />
<path d="M 143 137 L 101 153 L 66 111 Z" fill="#4d6335" fill-opacity="0.501961" />
<path d="M 123 22 L 104 17 L 121 14 Z" fill="#868858" fill-opacity="0.501961" />
<path d="M 118 68 L 57 56 L 124 116 Z" fill="#5b7742" fill-opacity="0.501961" />
<path d="M 143 78 L 117 68 L 126 57 Z" fill="#d4c1ac" fill-opacity="0.501961" />
<path d="M 160 115 L 144 113 L 171 105 Z" fill="#415d2f" fill-opacity="0.501961" />
<path d="M 135 72 L 167 94 L 169 74 Z" fill="#e0ceba" fill-opacity="0.501961" />
<path d="M 153 26 L 162 18 L 155 20 Z" fill="#f6ecf3" fill-opacity="0.501961" />
<path d="M 136 52 L 133 62 L 130 61 Z" fill="#453647" fill-opacity="0.501961" />
<path d="M 118 56 L 23 39 L 68 18 Z" fill="#708451" fill-opacity="0.501961" />
<path d="M 70 -16 L 19 19 L 53 17 Z" fill="#4e4b3a" fill-opacity="0.501961" />
<path d="M 231 20 L 208 -16 L 207 14 Z" fill="#2f2a1f" fill-opacity="0.501961" />
<path d="M -16 37 L 52 57 L 68 112 Z" fill="#57723e" fill-opacity="0.501961" />
<path d="M 168 63 L 167 43 L 230 80 Z" fill="#617346" fill-opacity="0.501961" />
<path d="M 166 64 L 188 70 L 165 74 Z" fill="#d0bda8" fill-opacity="0.501961" />
<path d="M 165 29 L 156 26 L 161 23 Z" fill="#968b9b" fill-opacity="0.501961" />
<path d="M 130 125 L 138 112 L 145 119 Z" fill="#91785e" fill-opacity="0.501961" />
<path d="M 259 92 L 268 156 L 190 158 Z" fill="#c8b4a0" fill-opacity="0.501961" />
<path d="M 176 9 L 156 16 L 187 -16 Z" fill="#4e3f3e" fill-opacity="0.501961" />
<path d="M 193 -16 L 153 12 L 101 14 Z" fill="#3f362e" fill-opacity="0.501961" />
<path d="M 168 136 L 161 145 L 149 137 Z" fill="#595a32" fill-opacity="0.501961" />
<path d="M -8 42 L -16 92 L 30 48 Z" fill="#5b723f" fill-opacity="0.501961" />
<path d="M 123 76 L 111 78 L 143 103 Z" fill="#7c7c50" fill-opacity="0.501961" />
<path d="M 174 28 L 169 32 L 186 32 Z" fill="#3a5632" fill-opacity="0.501961" />
<path d="M 149 13 L 135 14 L 133 19 Z" fill="#868161" fill-opacity="0.501961" />
<path d="M 113 107 L 147 106 L 101 130 Z" fill="#5a6f3d" fill-opacity="0.501961" />
<path d="M 10 40 L -11 41 L -4 35 Z" fill="#e5cdbb" fill-opacity="0.501961" />
<path d="M 130 56 L 129 63 L 103 56 Z" fill="#dfcfbd" fill-opacity="0.501961" />
<path d="M 40 51 L 19 40 L 48 46 Z" fill="#dccab7" fill-opacity="0.501961" />
<path d="M 35 76 L -16 133 L 54 96 Z" fill="#4a6533" fill-opacity="0.501961" />
<path d="M 156 90 L 146 94 L 168 103 Z" fill="#496531" fill-opacity="0.501961" />
<path d="M 145 134 L 167 135 L 174 126 Z" fill="#8c7559" fill-opacity="0.501961" />
<path d="M 257 30 L 225 24 L 235 33 Z" fill="#3a4b27" fill-opacity="0.501961" />
<path d="M 139 55 L 137 57 L 142 57 Z" fill="#cabda7" fill-opacity="0.501961" />
<path d="M 81 7 L 88 -16 L 125 -1 Z" fill="#6e5e50" fill-opacity="0.501961" />
<path d="M 125 27 L 125 21 L 123 26 Z" fill="#e6d2c6" fill-opacity="0.501961" />
<path d="M 137 28 L 126 20 L 127 46 Z" fill="#130f12" fill-opacity="0.501961" />
<path d="M 112 22 L 127 21 L 127 13 Z" fill="#72774d" fill-opacity="0.501961" />
<path d="M 205 158 L 231 83 L 193 71 Z" fill="#d1bda9" fill-opacity="0.501961" />
<path d="M 59 126 L 35 158 L 61 83 Z" fill="#586d3e" fill-opacity="0.501961" />
<path d="M 164 20 L 168 28 L 159 33 Z" fill="#d7ccde" fill-opacity="0.501961" />
<path d="M 155 36 L 165 33 L 166 56 Z" fill="#292f42" fill-opacity="0.501961" />
<path d="M 109 0 L 105 15 L 144 5 Z" fill="#484034" fill-opacity="0.501961" />
<path d="M 89 60 L 71 48 L 50 53 Z" fill="#d7c6b1" fill-opacity="0.501961" />
<path d="M 46 -7 L 63 17 L 89 14 Z" fill="#333128" fill-opacity="0.501961" />
<path d="M 211 37 L 172 52 L 171 33 Z" fill="#758956" fill-opacity="0.501961" />
<path d="M 107 62 L 110 55 L 97 61 Z" fill="#dacbb7" fill-opacity="0.501961" />
<path d="M 172 13 L 167 37 L 173 28 Z" fill="#7c674d" fill-opacity="0.501961" />
<path d="M 15 1 L -16 -13 L 23 -16 Z" fill="#a2958c" fill-opacity="0.501961" />
<path d="M 42 5 L 17 5 L 30 20 Z" fill="#5e524d" fill-opacity="0.501961" />
<path d="M 127 46 L 132 46 L 132 59 Z" fill="#4d4954" fill-opacity="0.501961" />
<path d="M 179 4 L 194 11 L 179 13 Z" fill="#22241c" fill-opacity="0.501961" />
<path d="M 74 24 L 100 24 L 91 14 Z" fill="#5a7641" fill-opacity="0.501961" />
<path d="M 115 56 L 28 40 L 122 25 Z" fill="#738654" fill-opacity="0.501961" />
<path d="M 150 99 L 128 72 L 125 82 Z" fill="#637740" fill-opacity="0.501961" />
<path d="M 188 158 L 166 119 L 177 115 Z" fill="#556a3c" fill-opacity="0.501961" />
<path d="M 154 21 L 150 29 L 160 29 Z" fill="#e4dbe7" fill-opacity="0.501961" />
<path d="M 138 22 L 140 31 L 146 33 Z" fill="#bb9c8c" fill-opacity="0.501961" />
<path d="M 160 58 L 157 58 L 158 66 Z" fill="#141824" fill-opacity="0.501961" />
<path d="M 141 27 L 149 33 L 147 43 Z" fill="#6e8c51" fill-opacity="0.501961" />
<path d="M 242 87 L 256 69 L 195 62 Z" fill="#4c6432" fill-opacity="0.501961" />
<path d="M 178 109 L 170 102 L 176 114 Z" fill="#b0a588" fill-opacity="0.501961" />
<path d="M 182 23 L 156 17 L 170 15 Z" fill="#7d7456" fill-opacity="0.501961" />
<path d="M 158 29 L 159 26 L 167 29 Z" fill="#9b8f9b" fill-opacity="0.501961" />
<path d="M 200 66 L 198 48 L 219 48 Z" fill="#50653b" fill-opacity="0.501961" />
<path d="M 210 16 L 200 -16 L 150 -13 Z" fill="#483e34" fill-opacity="0.501961" />
<path d="M 153 47 L 154 43 L 143 43 Z" fill="#b47862" fill-opacity="0.501961" />
<path d="M 152 49 L 153 55 L 154 52 Z" fill="#161b10" fill-opacity="0.501961" />
<path d="M 164 62 L 161 54 L 159 61 Z" fill="#607250" fill-opacity="0.501961" />
<path d="M 154 41 L 159 57 L 160 41 Z" fill="#181b23" fill-opacity="0.501961" />
<path d="M 17 50 L 105 64 L 65 77 Z" fill="#597640" fill-opacity="0.501961" />
<path d="M 137 26 L 125 28 L 137 44 Z" fill="#0f0d11" fill-opacity="0.501961" />
<path d="M 129 46 L 139 37 L 140 43 Z" fill="#09090d" fill-opacity="0.501961" />
<path d="M 227 33 L 271 32 L 245 56 Z" fill="#5d6b3a" fill-opacity="0.501961" />
<path d="M 163 24 L 157 23 L 154 25 Z" fill="#9f949b" fill-opacity="0.501961" />
<path d="M 155 61 L 139 46 L 137 54 Z" fill="#698251" fill-opacity="0.501961" />
<path d="M 105 91 L 90 146 L 55 75 Z" fill="#4a6836" fill-opacity="0.501961" />
<path d="M 163 125 L 160 130 L 151 122 Z" fill="#515f35" fill-opacity="0.501961" />
<path d="M 137 83 L 154 88 L 115 102 Z" fill="#576e39" fill-opacity="0.501961" />
<path d="M 162 17 L 157 13 L 162 13 Z" fill="#421f19" fill-opacity="0.501961" />
<path d="M 23 12 L 21 13 L 23 17 Z" fill="#917b85" fill-opacity="0.501961" />
<path d="M 8 20 L 3 11 L 27 17 Z" fill="#63423e" fill-opacity="0.501961" />
<path d="M 145 16 L 158 18 L 156 13 Z" fill="#897d5f" fill-opacity="0.501961" />
<path d="M 155 33 L 165 33 L 158 37 Z" fill="#514e63" fill-opacity="0.501961" />
<path d="M 90 9 L 88 18 L 96 7 Z" fill="#82756e" fill-opacity="0.501961" />
<path d="M 254 68 L 271 53 L 250 57 Z" fill="#3d4519" fill-opacity="0.501961" />
<path d="M 170 45 L 168 36 L 167 50 Z" fill="#8a8b57" fill-opacity="0.501961" />
<path d="M 204 32 L 220 50 L 245 37 Z" fill="#6c7d4a" fill-opacity="0.501961" />
<path d="M 84 40 L 125 37 L 128 56 Z" fill="#798458" fill-opacity="0.501961" />
<path d="M 159 80 L 155 62 L 137 60 Z" fill="#d6c6b2" fill-opacity="0.501961" />
<path d="M 133 93 L 138 107 L 157 106 Z" fill="#817954" fill-opacity="0.501961" />
<path d="M 86 52 L 107 61 L 63 55 Z" fill="#dfcebc" fill-opacity="0.501961" />
<path d="M 20 77 L 30 49 L 71 59 Z" fill="#5d7540" fill-opacity="0.501961" />
<path d="M -1 37 L -16 18 L 30 24 Z" fill="#5f7842" fill-opacity="0.501961" />
<path d="M 111 134 L 69 136 L 70 158 Z" fill="#3d5a29" fill-opacity="0.501961" />
<path d="M 159 67 L 155 71 L 166 67 Z" fill="#9e8c80" fill-opacity="0.501961" />
<path d="M 205 32 L 223 26 L 239 32 Z" fill="#355028" fill-opacity="0.501961" />
<path d="M 128 138 L 143 154 L 144 138 Z" fill="#837054" fill-opacity="0.501961" />
<path d="M 245 66 L 213 61 L 239 58 Z" fill="#785c4a" fill-opacity="0.501961" />
<path d="M 96 132 L 76 135 L 69 120 Z" fill="#546d3e" fill-opacity="0.501961" />
<path d="M 134 77 L 130 84 L 152 85 Z" fill="#6d814c" fill-opacity="0.501961" />
<path d="M 213 158 L 201 133 L 186 138 Z" fill="#d4c1ac" fill-opacity="0.501961" />
<path d="M 140 135 L 147 124 L 134 134 Z" fill="#8f785e" fill-opacity="0.501961" />
<path d="M 132 75 L 130 68 L 139 56 Z" fill="#c6a091" fill-opacity="0.501961" />
<path d="M 165 38 L 172 37 L 169 30 Z" fill="#804a42" fill-opacity="0.501961" />
<path d="M 258 23 L 238 10 L 271 -16 Z" fill="#635044" fill-opacity="0.501961" />
<path d="M 121 137 L 118 114 L 103 124 Z" fill="#636b44" fill-opacity="0.501961" />
<path d="M 134 77 L 149 61 L 173 79 Z" fill="#d7c6b1" fill-opacity="0.501961" />
<path d="M 155 31 L 144 30 L 142 42 Z" fill="#888b5f" fill-opacity="0.501961" />
<path d="M 172 29 L 163 12 L 225 22 Z" fill="#6b6e4b" fill-opacity="0.501961" />
<path d="M 125 35 L 121 40 L 124 31 Z" fill="#aa6f69" fill-opacity="0.501961" />
<path d="M 74 83 L 110 66 L 32 70 Z" fill="#516f3a" fill-opacity="0.501961" />
<path d="M -9 158 L 26 135 L -16 144 Z" fill="#334b1f" fill-opacity="0.501961" />
<path d="M 48 106 L 71 104 L 50 79 Z" fill="#597343" fill-opacity="0.501961" />
<path d="M 174 57 L 180 55 L 176 59 Z" fill="#93836b" fill-opacity="0.501961" />
<path d="M 151 86 L 164 77 L 145 76 Z" fill="#ddccb8" fill-opacity="0.501961" />
<path d="M 144 32 L 155 17 L 141 25 Z" fill="#6c6f4e" fill-opacity="0.501961" />
<path d="M 271 124 L 271 102 L 235 86 Z" fill="#c0ac97" fill-opacity="0.501961" />
<path d="M 240 60 L 244 47 L 254 69 Z" fill="#5c4d34" fill-opacity="0.501961" />
<path d="M 195 34 L 184 30 L 209 28 Z" fill="#3a572e" fill-opacity="0.501961" />
<path d="M 114 67 L 126 66 L 135 73 Z" fill="#cfc2a9" fill-opacity="0.501961" />
<path d="M 128 19 L 124 -16 L 169 -16 Z" fill="#453931" fill-opacity="0.501961" />
<path d="M 164 53 L 149 46 L 166 46 Z" fill="#373d39" fill-opacity="0.501961" />
<path d="M 72 23 L 99 26 L 99 38 Z" fill="#789158" fill-opacity="0.501961" />
<path d="M -16 60 L 32 74 L -8 49 Z" fill="#607846" fill-opacity="0.501961" />
<path d="M 141 122 L 152 120 L 153 123 Z" fill="#434c2d" fill-opacity="0.501961" />
<path d="M 81 111 L 75 116 L 63 115 Z" fill="#385624" fill-opacity="0.501961" />
<path d="M 8 65 L 5 119 L 54 135 Z" fill="#4d6433" fill-opacity="0.501961" />
<path d="M 11 20 L 55 35 L 71 18 Z" fill="#6c7e4d" fill-opacity="0.501961" />
<path d="M 100 46 L 105 41 L 100 28 Z" fill="#746653" fill-opacity="0.501961" />
<path d="M 130 56 L 106 26 L 100 54 Z" fill="#758c55" fill-opacity="0.501961" />
<path d="M 123 79 L 132 91 L 125 88 Z" fill="#90805e" fill-opacity="0.501961" />
<path d="M 58 46 L 95 51 L 90 41 Z" fill="#6a814d" fill-opacity="0.501961" />
<path d="M 12 9 L 20 15 L 12 14 Z" fill="#837564" fill-opacity="0.501961" />
<path d="M 185 131 L 177 117 L 175 131 Z" fill="#647348" fill-opacity="0.501961" />
<path d="M 198 94 L 164 81 L 186 129 Z" fill="#d5c5ae" fill-opacity="0.501961" />
<path d="M 4 105 L 28 77 L 21 103 Z" fill="#566d3e" fill-opacity="0.501961" />
<path d="M 220 8 L 247 3 L 224 -16 Z" fill="#534833" fill-opacity="0.501961" />
<path d="M 161 55 L 166 65 L 165 46 Z" fill="#2f384e" fill-opacity="0.501961" />
<path d="M 226 81 L 190 63 L 247 67 Z" fill="#526839" fill-opacity="0.501961" />
<path d="M 199 28 L 185 13 L 245 24 Z" fill="#666d41" fill-opacity="0.501961" />
<path d="M 172 63 L 168 64 L 171 49 Z" fill="#4b513b" fill-opacity="0.501961" />
<path d="M 65 48 L 53 54 L 31 45 Z" fill="#dac8b5" fill-opacity="0.501961" />
<path d="M 211 12 L 196 14 L 182 -3 Z" fill="#3f352c" fill-opacity="0.501961" />
<path d="M 156 57 L 160 66 L 159 44 Z" fill="#1e212c" fill-opacity="0.501961" />
<path d="M 152 135 L 145 123 L 154 123 Z" fill="#948062" fill-opacity="0.501961" />
<path d="M 172 107 L 158 115 L 176 117 Z" fill="#50683c" fill-opacity="0.501961" />
<path d="M 165 12 L 142 -12 L 167 0 Z" fill="#3c332e" fill-opacity="0.501961" />
<path d="M -4 31 L 24 33 L 12 39 Z" fill="#708550" fill-opacity="0.501961" />
<path d="M 135 90 L 140 113 L 121 113 Z" fill="#5c6f3e" fill-opacity="0.501961" />
<path d="M 121 127 L 116 123 L 124 125 Z" fill="#8e7c61" fill-opacity="0.501961" />
<path d="M 188 48 L 174 54 L 210 66 Z" fill="#5b6f40" fill-opacity="0.501961" />
<path d="M 161 91 L 184 105 L 175 66 Z" fill="#d7c7b1" fill-opacity="0.501961" />
<path d="M 48 36 L 9 32 L 30 41 Z" fill="#768856" fill-opacity="0.501961" />
<path d="M 154 52 L 145 55 L 142 49 Z" fill="#5e7844" fill-opacity="0.501961" />
<path d="M 158 18 L 164 26 L 171 28 Z" fill="#e4d5e0" fill-opacity="0.501961" />
<path d="M 127 139 L 139 136 L 117 135 Z" fill="#48542d" fill-opacity="0.501961" />
<path d="M 171 50 L 233 46 L 179 35 Z" fill="#71844f" fill-opacity="0.501961" />
<path d="M 254 47 L 220 41 L 265 37 Z" fill="#666a42" fill-opacity="0.501961" />
<path d="M 12 41 L 30 47 L 32 41 Z" fill="#dac8b6" fill-opacity="0.501961" />
<path d="M 18 39 L 18 44 L 0 39 Z" fill="#d3c1ac" fill-opacity="0.501961" />
<path d="M 157 57 L 153 53 L 153 44 Z" fill="#64694d" fill-opacity="0.501961" />
<path d="M 137 49 L 127 45 L 137 28 Z" fill="#151416" fill-opacity="0.501961" />
<path d="M 48 132 L -11 133 L 11 119 Z" fill="#415929" fill-opacity="0.501961" />
<path d="M 102 63 L 113 74 L 130 77 Z" fill="#547241" fill-opacity="0.501961" />
<path d="M 201 7 L 231 7 L 236 21 Z" fill="#383127" fill-opacity="0.501961" />
<path d="M 26 5 L 35 -5 L 23 -4 Z" fill="#7f7260" fill-opacity="0.501961" />
<path d="M 134 68 L 136 70 L 132 70 Z" fill="#7c746d" fill-opacity="0.501961" />
<path d="M 271 98 L 241 69 L 230 81 Z" fill="#495b31" fill-opacity="0.501961" />
<path d="M 129 54 L 133 48 L 137 61 Z" fill="#534e53" fill-opacity="0.501961" />
<path d="M 169 101 L 167 122 L 154 95 Z" fill="#536a3b" fill-opacity="0.501961" />
<path d="M 132 22 L 137 25 L 126 32 Z" fill="#120e14" fill-opacity="0.501961" />
<path d="M 120 25 L 125 21 L 118 22 Z" fill="#4f663c" fill-opacity="0.501961" />
<path d="M 89 -11 L 126 -12 L 123 5 Z" fill="#60564c" fill-opacity="0.501961" />
<path d="M 171 13 L 161 17 L 181 21 Z" fill="#747156" fill-opacity="0.501961" />
<path d="M 142 130 L 143 128 L 148 128 Z" fill="#b49c81" fill-opacity="0.501961" />
<path d="M 158 0 L 154 13 L 109 5 Z" fill="#40382e" fill-opacity="0.501961" />
<path d="M 128 1 L 138 12 L 97 15 Z" fill="#4a4137" fill-opacity="0.501961" />
<path d="M 126 86 L 103 68 L 113 95 Z" fill="#5e713f" fill-opacity="0.501961" />
<path d="M 140 41 L 141 39 L 145 44 Z" fill="#7d4548" fill-opacity="0.501961" />
<path d="M -13 63 L 34 49 L 37 65 Z" fill="#546d3c" fill-opacity="0.501961" />
<path d="M 173 68 L 182 68 L 171 65 Z" fill="#b9a692" fill-opacity="0.501961" />
<path d="M 30 100 L 23 93 L 43 84 Z" fill="#40602d" fill-opacity="0.501961" />
<path d="M 158 45 L 155 60 L 159 57 Z" fill="#1e2430" fill-opacity="0.501961" />
<path d="M 157 72 L 164 65 L 161 64 Z" fill="#d5c7c0" fill-opacity="0.501961" />
<path d="M 107 4 L 114 -10 L 74 -16 Z" fill="#7b654a" fill-opacity="0.501961" />
<path d="M 104 38 L 120 37 L 122 26 Z" fill="#7c9259" fill-opacity="0.501961" />
<path d="M 198 72 L 179 122 L 213 77 Z" fill="#d3c1ac" fill-opacity="0.501961" />
<path d="M 102 16 L 126 15 L 128 22 Z" fill="#787953" fill-opacity="0.501961" />
<path d="M 66 7 L 63 17 L 53 16 Z" fill="#26261e" fill-opacity="0.501961" />
<path d="M 163 118 L 151 131 L 156 115 Z" fill="#76754c" fill-opacity="0.501961" />
<path d="M 139 23 L 136 22 L 140 27 Z" fill="#d4a9af" fill-opacity="0.501961" />
<path d="M 9 9 L -4 7 L 12 15 Z" fill="#4e453c" fill-opacity="0.501961" />
<path d="M 81 -3 L 73 4 L 81 16 Z" fill="#403d31" fill-opacity="0.501961" />
<path d="M 144 40 L 138 33 L 143 35 Z" fill="#8b7361" fill-opacity="0.501961" />
<path d="M 153 23 L 155 24 L 157 20 Z" fill="#faf5fb" fill-opacity="0.501961" />
<path d="M 219 -16 L 214 8 L 233 -16 Z" fill="#242215" fill-opacity="0.501961" />
<path d="M 175 137 L 226 158 L 180 157 Z" fill="#4d5e31" fill-opacity="0.501961" />
<path d="M 130 132 L 138 125 L 147 126 Z" fill="#636841" fill-opacity="0.501961" />
<path d="M 84 16 L 88 16 L 88 2 Z" fill="#524542" fill-opacity="0.501961" />
<path d="M 140 118 L 145 112 L 133 116 Z" fill="#8f7d5f" fill-opacity="0.501961" />
<path d="M 59 5 L 55 15 L 34 15 Z" fill="#41492e" fill-opacity="0.501961" />
<path d="M 139 60 L 149 60 L 139 67 Z" fill="#d9cab8" fill-opacity="0.501961" />
<path d="M 125 38 L 122 46 L 123 35 Z" fill="#84604d" fill-opacity="0.501961" />
<path d="M 63 62 L 93 61 L 114 94 Z" fill="#5c7843" fill-opacity="0.501961" />
<path d="M 147 109 L 145 117 L 168 112 Z" fill="#506336" fill-opacity="0.501961" />
<path d="M 37 11 L 63 -7 L 34 -16 Z" fill="#5a5a40" fill-opacity="0.501961" />
<path d="M 231 13 L 260 21 L 232 21 Z" fill="#4d4431" fill-opacity="0.501961" />
<path d="M 87 -16 L 77 -16 L 85 12 Z" fill="#6e6158" fill-opacity="0.501961" />
<path d="M 200 140 L 234 85 L 237 124 Z" fill="#cdbaa7" fill-opacity="0.501961" />
<path d="M 94 3 L 97 8 L 96 1 Z" fill="#977e55" fill-opacity="0.501961" />
<path d="M 150 57 L 154 55 L 153 57 Z" fill="#9f987f" fill-opacity="0.501961" />
<path d="M 171 60 L 177 44 L 172 35 Z" fill="#758656" fill-opacity="0.501961" />
<path d="M 72 103 L 40 111 L 28 102 Z" fill="#58703e" fill-opacity="0.501961" />
<path d="M 137 102 L 136 95 L 145 101 Z" fill="#8b7b5a" fill-opacity="0.501961" />
<path d="M 58 65 L 59 56 L 82 63 Z" fill="#637c46" fill-opacity="0.501961" />
<path d="M 137 25 L 127 44 L 127 22 Z" fill="#151216" fill-opacity="0.501961" />
<path d="M 187 131 L 190 132 L 186 138 Z" fill="#a59b7f" fill-opacity="0.501961" />
<path d="M 137 78 L 129 76 L 127 72 Z" fill="#7a8b57" fill-opacity="0.501961" />
<path d="M 159 69 L 153 70 L 150 68 Z" fill="#bba897" fill-opacity="0.501961" />
<path d="M 74 18 L 90 25 L 99 16 Z" fill="#5f7542" fill-opacity="0.501961" />
<path d="M 100 5 L 93 -6 L 98 -7 Z" fill="#504234" fill-opacity="0.501961" />
<path d="M 186 126 L 184 123 L 180 123 Z" fill="#a7a080" fill-opacity="0.501961" />
<path d="M 84 60 L 83 58 L 77 58 Z" fill="#b0ac86" fill-opacity="0.501961" />
<path d="M 143 57 L 151 56 L 140 54 Z" fill="#969073" fill-opacity="0.501961" />
<path d="M 160 158 L 146 134 L 160 146 Z" fill="#856d50" fill-opacity="0.501961" />
<path d="M 227 55 L 208 65 L 223 41 Z" fill="#6a6c4a" fill-opacity="0.501961" />
<path d="M 136 24 L 129 31 L 129 46 Z" fill="#100f12" fill-opacity="0.501961" />
<path d="M 166 41 L 166 46 L 159 44 Z" fill="#1f2631" fill-opacity="0.501961" />
<path d="M 205 28 L 189 26 L 197 24 Z" fill="#7c764f" fill-opacity="0.501961" />
<path d="M 271 118 L 238 158 L 251 93 Z" fill="#c7b49f" fill-opacity="0.501961" />
<path d="M 81 59 L 103 59 L 66 48 Z" fill="#decdbb" fill-opacity="0.501961" />
<path d="M 254 60 L 246 57 L 243 68 Z" fill="#67573d" fill-opacity="0.501961" />
<path d="M 102 26 L 97 16 L 99 6 Z" fill="#4f4539" fill-opacity="0.501961" />
<path d="M 160 62 L 163 55 L 161 55 Z" fill="#6f7d57" fill-opacity="0.501961" />
<path d="M 168 31 L 165 31 L 171 27 Z" fill="#a58370" fill-opacity="0.501961" />
<path d="M 221 58 L 238 45 L 271 53 Z" fill="#5b623c" fill-opacity="0.501961" />
<path d="M 130 64 L 141 79 L 130 73 Z" fill="#d2c2ac" fill-opacity="0.501961" />
<path d="M 152 36 L 151 30 L 155 31 Z" fill="#af7369" fill-opacity="0.501961" />
<path d="M 210 33 L 196 34 L 201 31 Z" fill="#4d6e36" fill-opacity="0.501961" />
<path d="M 209 2 L 157 3 L 218 -16 Z" fill="#484038" fill-opacity="0.501961" />
<path d="M 109 56 L 112 65 L 95 55 Z" fill="#dcccba" fill-opacity="0.501961" />
<path d="M 95 31 L 67 25 L 41 35 Z" fill="#6b804c" fill-opacity="0.501961" />
<path d="M 136 59 L 133 49 L 137 46 Z" fill="#353137" fill-opacity="0.501961" />
<path d="M 36 17 L 16 9 L 19 0 Z" fill="#5d514b" fill-opacity="0.501961" />
<path d="M 13 98 L 6 89 L -16 104 Z" fill="#425a2b" fill-opacity="0.501961" />
<path d="M 152 96 L 155 89 L 148 94 Z" fill="#415e2b" fill-opacity="0.501961" />
<path d="M 149 143 L 139 158 L 144 139 Z" fill="#b5997d" fill-opacity="0.501961" />
<path d="M 252 8 L 242 7 L 241 21 Z" fill="#655747" fill-opacity="0.501961" />
<path d="M 151 100 L 142 99 L 153 104 Z" fill="#917e5b" fill-opacity="0.501961" />
<path d="M 165 25 L 166 22 L 162 21 Z" fill="#e5dde7" fill-opacity="0.501961" />
<path d="M 242 87 L 243 90 L 248 91 Z" fill="#947f69" fill-opacity="0.501961" />
<path d="M 139 126 L 120 128 L 130 132 Z" fill="#4b5e30" fill-opacity="0.501961" />
<path d="M 48 64 L 30 48 L 9 49 Z" fill="#5e7643" fill-opacity="0.501961" />
<path d="M 92 43 L 93 41 L 97 44 Z" fill="#957e6f" fill-opacity="0.501961" />
<path d="M 51 35 L 29 36 L 56 43 Z" fill="#7c8d5a" fill-opacity="0.501961" />
<path d="M 145 101 L 145 112 L 156 121 Z" fill="#62693e" fill-opacity="0.501961" />
<path d="M 122 87 L 95 105 L 140 112 Z" fill="#55703c" fill-opacity="0.501961" />
<path d="M 12 134 L 13 131 L 22 131 Z" fill="#334714" fill-opacity="0.501961" />
<path d="M 151 120 L 152 116 L 138 120 Z" fill="#817d57" fill-opacity="0.501961" />
<path d="M 143 58 L 154 58 L 147 60 Z" fill="#58713e" fill-opacity="0.501961" />
<path d="M 200 61 L 196 55 L 216 56 Z" fill="#505e36" fill-opacity="0.501961" />
<path d="M 128 58 L 123 68 L 97 57 Z" fill="#dbccb9" fill-opacity="0.501961" />
<path d="M 32 107 L 31 153 L 14 109 Z" fill="#4a6231" fill-opacity="0.501961" />
<path d="M 114 75 L 105 88 L 108 65 Z" fill="#637845" fill-opacity="0.501961" />
<path d="M 49 19 L 36 19 L 33 6 Z" fill="#4b4838" fill-opacity="0.501961" />
<path d="M 150 25 L 155 20 L 163 20 Z" fill="#f1eaf2" fill-opacity="0.501961" />
<path d="M 156 25 L 152 27 L 159 34 Z" fill="#d4c9d5" fill-opacity="0.501961" />
<path d="M 160 68 L 164 67 L 169 69 Z" fill="#8f7c70" fill-opacity="0.501961" />
<path d="M 172 99 L 161 63 L 158 85 Z" fill="#d6c6b2" fill-opacity="0.501961" />
<path d="M 140 56 L 138 49 L 147 37 Z" fill="#718854" fill-opacity="0.501961" />
<path d="M 161 46 L 163 57 L 160 57 Z" fill="#525342" fill-opacity="0.501961" />
<path d="M 59 53 L 49 47 L 74 50 Z" fill="#dccbb9" fill-opacity="0.501961" />
<path d="M 116 117 L 102 114 L 118 124 Z" fill="#596f3b" fill-opacity="0.501961" />
<path d="M 170 62 L 167 59 L 167 52 Z" fill="#728051" fill-opacity="0.501961" />
<path d="M 166 67 L 171 66 L 161 65 Z" fill="#d3c7bc" fill-opacity="0.501961" />
<path d="M 9 44 L 13 40 L 4 37 Z" fill="#d0bfa8" fill-opacity="0.501961" />
<path d="M 127 46 L 132 53 L 132 46 Z" fill="#464144" fill-opacity="0.501961" />
<path d="M 152 53 L 153 51 L 152 50 Z" fill="#0e0c11" fill-opacity="0.501961" />
<path d="M 140 117 L 124 126 L 126 118 Z" fill="#6f6c49" fill-opacity="0.501961" />
<path d="M 140 26 L 140 21 L 137 21 Z" fill="#c9aa99" fill-opacity="0.501961" />
<path d="M 169 65 L 166 63 L 168 67 Z" fill="#9b8e7f" fill-opacity="0.501961" />
<path d="M 148 22 L 140 21 L 149 32 Z" fill="#70714e" fill-opacity="0.501961" />
<path d="M 13 60 L -9 47 L 31 57 Z" fill="#506a38" fill-opacity="0.501961" />
<path d="M 233 71 L 222 68 L 207 75 Z" fill="#4c6035" fill-opacity="0.501961" />
<path d="M 144 44 L 149 43 L 150 48 Z" fill="#b08e6a" fill-opacity="0.501961" />
<path d="M 154 17 L 137 20 L 143 23 Z" fill="#606647" fill-opacity="0.501961" />
<path d="M 145 99 L 128 74 L 147 85 Z" fill="#5b7240" fill-opacity="0.501961" />
<path d="M 157 19 L 152 22 L 152 30 Z" fill="#e9dfe5" fill-opacity="0.501961" />
<path d="M 51 46 L 62 46 L 48 42 Z" fill="#6a7848" fill-opacity="0.501961" />
<path d="M 180 13 L 154 6 L 172 -1 Z" fill="#473d37" fill-opacity="0.501961" />
<path d="M 230 40 L 216 33 L 195 40 Z" fill="#718450" fill-opacity="0.501961" />
<path d="M 39 31 L 22 25 L 61 25 Z" fill="#728550" fill-opacity="0.501961" />
<path d="M 160 23 L 167 33 L 156 24 Z" fill="#aea0a9" fill-opacity="0.501961" />
<path d="M 132 21 L 129 19 L 127 21 Z" fill="#cdaaa1" fill-opacity="0.501961" />
<path d="M 126 19 L 132 17 L 135 12 Z" fill="#35231e" fill-opacity="0.501961" />
<path d="M 57 11 L 35 13 L 42 6 Z" fill="#4c5135" fill-opacity="0.501961" />
<path d="M 59 27 L 83 28 L 74 22 Z" fill="#778c56" fill-opacity="0.501961" />
<path d="M 217 17 L 218 13 L 232 18 Z" fill="#2b231c" fill-opacity="0.501961" />
<path d="M 177 24 L 171 30 L 169 23 Z" fill="#6b6b4c" fill-opacity="0.501961" />
<path d="M 108 38 L 115 37 L 102 26 Z" fill="#7e905a" fill-opacity="0.501961" />
<path d="M 99 48 L 86 51 L 112 55 Z" fill="#69804c" fill-opacity="0.501961" />
<path d="M 131 56 L 107 52 L 125 46 Z" fill="#738f57" fill-opacity="0.501961" />
<path d="M 163 64 L 162 50 L 166 55 Z" fill="#353e4f" fill-opacity="0.501961" />
<path d="M 140 101 L 146 104 L 149 102 Z" fill="#67663e" fill-opacity="0.501961" />
<path d="M 88 46 L 106 40 L 123 45 Z" fill="#747c54" fill-opacity="0.501961" />
<path d="M 122 16 L 128 20 L 115 24 Z" fill="#697149" fill-opacity="0.501961" />
<path d="M 23 9 L -3 7 L -1 0 Z" fill="#605444" fill-opacity="0.501961" />
<path d="M 139 134 L 138 130 L 148 132 Z" fill="#a0806b" fill-opacity="0.501961" />
<path d="M 106 63 L 119 67 L 112 67 Z" fill="#c7bb9f" fill-opacity="0.501961" />
<path d="M 156 130 L 151 132 L 164 133 Z" fill="#917c5d" fill-opacity="0.501961" />
<path d="M 213 21 L 185 21 L 213 29 Z" fill="#666943" fill-opacity="0.501961" />
<path d="M 15 40 L 35 40 L 14 32 Z" fill="#6f824f" fill-opacity="0.501961" />
<path d="M 183 127 L 186 147 L 164 120 Z" fill="#53663a" fill-opacity="0.501961" />
<path d="M 23 19 L 25 13 L 23 9 Z" fill="#58413c" fill-opacity="0.501961" />
<path d="M 110 158 L 179 145 L 139 141 Z" fill="#987d62" fill-opacity="0.501961" />
<path d="M 141 34 L 141 30 L 143 35 Z" fill="#b98076" fill-opacity="0.501961" />
<path d="M 134 27 L 134 31 L 124 29 Z" fill="#150d11" fill-opacity="0.501961" />
<path d="M 13 1 L 3 1 L -10 -16 Z" fill="#7c6a5d" fill-opacity="0.501961" />
<path d="M 166 127 L 162 132 L 172 131 Z" fill="#7f7453" fill-opacity="0.501961" />
<path d="M 247 106 L 234 85 L 271 105 Z" fill="#c6b29e" fill-opacity="0.501961" />
<path d="M 169 31 L 175 13 L 200 15 Z" fill="#6e734d" fill-opacity="0.501961" />
<path d="M 55 114 L 99 95 L 98 111 Z" fill="#486634" fill-opacity="0.501961" />
<path d="M 244 57 L 236 50 L 236 55 Z" fill="#74684a" fill-opacity="0.501961" />
<path d="M 53 114 L 27 77 L 52 90 Z" fill="#4b6836" fill-opacity="0.501961" />
<path d="M 216 15 L 190 1 L 194 12 Z" fill="#42362e" fill-opacity="0.501961" />
<path d="M 110 -5 L 135 15 L 116 9 Z" fill="#52463c" fill-opacity="0.501961" />
<path d="M 138 60 L 163 94 L 190 88 Z" fill="#d7c7b2" fill-opacity="0.501961" />
<path d="M 159 23 L 166 23 L 158 27 Z" fill="#aaa0a9" fill-opacity="0.501961" />
<path d="M 130 62 L 134 67 L 135 64 Z" fill="#e6a590" fill-opacity="0.501961" />
<path d="M 138 -1 L 138 -6 L 151 1 Z" fill="#524d46" fill-opacity="0.501961" />
<path d="M 196 29 L 201 32 L 210 29 Z" fill="#334f2b" fill-opacity="0.501961" />
<path d="M 95 121 L 87 158 L 104 125 Z" fill="#486233" fill-opacity="0.501961" />
<path d="M 166 100 L 151 101 L 158 91 Z" fill="#617443" fill-opacity="0.501961" />
<path d="M 6 130 L 9 139 L -8 122 Z" fill="#4e6235" fill-opacity="0.501961" />
<path d="M 101 43 L 98 33 L 80 33 Z" fill="#7e8d59" fill-opacity="0.501961" />
<path d="M 118 77 L 124 79 L 124 83 Z" fill="#89865a" fill-opacity="0.501961" />
<path d="M 184 67 L 205 60 L 169 60 Z" fill="#597541" fill-opacity="0.501961" />
<path d="M 192 18 L 179 22 L 166 18 Z" fill="#7b7a53" fill-opacity="0.501961" />
<path d="M 153 52 L 154 47 L 155 50 Z" fill="#657253" fill-opacity="0.501961" />
<path d="M 137 51 L 151 50 L 147 47 Z" fill="#6b8650" fill-opacity="0.501961" />
<path d="M 162 65 L 164 65 L 163 67 Z" fill="#f9f4f7" fill-opacity="0.501961" />
<path d="M 18 16 L 16 18 L 21 17 Z" fill="#682026" fill-opacity="0.501961" />
<path d="M 117 6 L 109 -1 L 110 15 Z" fill="#3d3c30" fill-opacity="0.501961" />
<path d="M 152 30 L 143 37 L 144 29 Z" fill="#708c57" fill-opacity="0.501961" />
<path d="M 187 140 L 190 130 L 192 144 Z" fill="#c8b7a2" fill-opacity="0.501961" />
<path d="M 220 57 L 208 61 L 213 63 Z" fill="#787150" fill-opacity="0.501961" />
<path d="M 163 35 L 152 39 L 157 34 Z" fill="#3b424f" fill-opacity="0.501961" />
<path d="M 202 19 L 208 15 L 188 15 Z" fill="#5e6b40" fill-opacity="0.501961" />
<path d="M 57 120 L 28 117 L 62 110 Z" fill="#536b3b" fill-opacity="0.501961" />
<path d="M 23 19 L 30 21 L 35 19 Z" fill="#817e5c" fill-opacity="0.501961" />
<path d="M 88 103 L 78 100 L 67 103 Z" fill="#577441" fill-opacity="0.501961" />
<path d="M 178 57 L 171 50 L 205 48 Z" fill="#607646" fill-opacity="0.501961" />
<path d="M 155 66 L 155 71 L 139 69 Z" fill="#cdb9a5" fill-opacity="0.501961" />
<path d="M 135 22 L 134 49 L 128 37 Z" fill="#121114" fill-opacity="0.501961" />
<path d="M 15 71 L 6 63 L 33 71 Z" fill="#627946" fill-opacity="0.501961" />
<path d="M 81 -6 L 87 -10 L 95 10 Z" fill="#60554f" fill-opacity="0.501961" />
<path d="M 163 126 L 158 130 L 154 124 Z" fill="#566337" fill-opacity="0.501961" />
<path d="M 114 62 L 122 63 L 124 72 Z" fill="#d4c7b0" fill-opacity="0.501961" />
<path d="M 178 120 L 179 114 L 181 120 Z" fill="#b2a98b" fill-opacity="0.501961" />
<path d="M 1 73 L 15 77 L 1 88 Z" fill="#566e3a" fill-opacity="0.501961" />
<path d="M 126 25 L 121 32 L 125 29 Z" fill="#af7b6e" fill-opacity="0.501961" />
<path d="M 156 51 L 155 39 L 163 40 Z" fill="#21242e" fill-opacity="0.501961" />
<path d="M 106 11 L 120 9 L 100 5 Z" fill="#524b3d" fill-opacity="0.501961" />
<path d="M 37 136 L 55 138 L 48 133 Z" fill="#5c6c3d" fill-opacity="0.501961" />
<path d="M 33 35 L -16 22 L 15 20 Z" fill="#627544" fill-opacity="0.501961" />
<path d="M 32 70 L 39 51 L 73 70 Z" fill="#59763f" fill-opacity="0.501961" />
<path d="M 130 57 L 128 52 L 138 60 Z" fill="#615c5b" fill-opacity="0.501961" />
<path d="M 122 -12 L 119 0 L 127 -8 Z" fill="#878782" fill-opacity="0.501961" />
<path d="M 200 46 L 189 49 L 177 45 Z" fill="#788b55" fill-opacity="0.501961" />
<path d="M 167 34 L 169 36 L 168 42 Z" fill="#90674e" fill-opacity="0.501961" />
<path d="M 138 56 L 139 58 L 140 56 Z" fill="#c5bca1" fill-opacity="0.501961" />
<path d="M 214 26 L 231 33 L 227 26 Z" fill="#3e5329" fill-opacity="0.501961" />
<path d="M 60 119 L 38 128 L 51 118 Z" fill="#586f3d" fill-opacity="0.501961" />
<path d="M 125 110 L 108 112 L 111 116 Z" fill="#476634" fill-opacity="0.501961" />
<path d="M 252 35 L 271 52 L 253 44 Z" fill="#6f7346" fill-opacity="0.501961" />
<path d="M 199 79 L 174 109 L 176 66 Z" fill="#d6c4ae" fill-opacity="0.501961" />
<path d="M 136 83 L 130 87 L 118 81 Z" fill="#757c50" fill-opacity="0.501961" />
<path d="M 139 87 L 155 93 L 147 85 Z" fill="#4c6933" fill-opacity="0.501961" />
<path d="M 171 45 L 172 35 L 169 35 Z" fill="#4e4f37" fill-opacity="0.501961" />
<path d="M 154 141 L 166 137 L 158 136 Z" fill="#4f5f32" fill-opacity="0.501961" />
<path d="M 34 14 L 31 12 L 31 17 Z" fill="#685b5f" fill-opacity="0.501961" />
<path d="M 110 94 L 88 81 L 122 119 Z" fill="#567240" fill-opacity="0.501961" />
<path d="M 171 39 L 176 46 L 172 46 Z" fill="#7e8f5f" fill-opacity="0.501961" />
<path d="M 236 84 L 248 89 L 259 87 Z" fill="#52603b" fill-opacity="0.501961" />
<path d="M 259 69 L 271 54 L 249 66 Z" fill="#3f411f" fill-opacity="0.501961" />
<path d="M 252 53 L 254 27 L 247 27 Z" fill="#515534" fill-opacity="0.501961" />
<path d="M 157 12 L 155 13 L 157 10 Z" fill="#9c7865" fill-opacity="0.501961" />
<path d="M 128 32 L 125 28 L 133 30 Z" fill="#0d0b0d" fill-opacity="0.501961" />
<path d="M 271 36 L 246 47 L 245 37 Z" fill="#686f44" fill-opacity="0.501961" />
<path d="M 100 56 L 80 52 L 98 61 Z" fill="#decebb" fill-opacity="0.501961" />
<path d="M 131 123 L 133 125 L 140 120 Z" fill="#90755d" fill-opacity="0.501961" />
<path d="M 91 133 L 84 133 L 97 113 Z" fill="#576e3d" fill-opacity="0.501961" />
<path d="M 77 77 L 127 74 L 91 64 Z" fill="#54723f" fill-opacity="0.501961" />
<path d="M 9 98 L -16 97 L 21 77 Z" fill="#496331" fill-opacity="0.501961" />
<path d="M 173 -16 L 153 13 L 141 11 Z" fill="#3a342a" fill-opacity="0.501961" />
<path d="M 264 105 L 252 93 L 271 102 Z" fill="#b19985" fill-opacity="0.501961" />
<path d="M 176 60 L 172 67 L 174 58 Z" fill="#66764f" fill-opacity="0.501961" />
<path d="M 89 -8 L 83 -13 L 87 7 Z" fill="#4f433b" fill-opacity="0.501961" />
<path d="M 96 76 L 89 84 L 108 83 Z" fill="#647d45" fill-opacity="0.501961" />
<path d="M 218 8 L 204 7 L 209 2 Z" fill="#2f2721" fill-opacity="0.501961" />
<path d="M 221 11 L 232 20 L 241 19 Z" fill="#41372d" fill-opacity="0.501961" />
<path d="M 5 100 L -16 97 L -16 110 Z" fill="#334a1b" fill-opacity="0.501961" />
<path d="M 111 18 L 122 19 L 127 14 Z" fill="#817e58" fill-opacity="0.501961" />
<path d="M 186 135 L 177 137 L 170 148 Z" fill="#4b6031" fill-opacity="0.501961" />
<path d="M 177 68 L 166 67 L 167 70 Z" fill="#c7b59f" fill-opacity="0.501961" />
<path d="M 128 70 L 131 66 L 118 70 Z" fill="#d0c0a8" fill-opacity="0.501961" />
<path d="M 179 1 L 163 12 L 185 -16 Z" fill="#4e433d" fill-opacity="0.501961" />
<path d="M 83 46 L 114 54 L 108 44 Z" fill="#778c56" fill-opacity="0.501961" />
<path d="M 38 78 L 31 69 L 53 82 Z" fill="#5e7841" fill-opacity="0.501961" />
<path d="M 255 5 L 225 4 L 217 -12 Z" fill="#584a3a" fill-opacity="0.501961" />
<path d="M 89 11 L 90 9 L 93 12 Z" fill="#918884" fill-opacity="0.501961" />
<path d="M 163 74 L 165 86 L 133 74 Z" fill="#dcccb9" fill-opacity="0.501961" />
<path d="M 166 49 L 169 39 L 169 47 Z" fill="#708457" fill-opacity="0.501961" />
<path d="M 139 69 L 136 67 L 139 71 Z" fill="#bda594" fill-opacity="0.501961" />
<path d="M 156 41 L 154 37 L 155 47 Z" fill="#38353b" fill-opacity="0.501961" />
<path d="M 13 0 L 7 -8 L 17 -15 Z" fill="#b2a7a0" fill-opacity="0.501961" />
<path d="M 168 55 L 171 54 L 170 50 Z" fill="#424e2b" fill-opacity="0.501961" />
<path d="M 173 134 L 174 136 L 169 135 Z" fill="#48552e" fill-opacity="0.501961" />
<path d="M 166 140 L 180 158 L 134 148 Z" fill="#7d6e52" fill-opacity="0.501961" />
<path d="M 251 25 L 269 20 L 268 41 Z" fill="#667140" fill-opacity="0.501961" />
<path d="M 225 81 L 230 76 L 210 71 Z" fill="#5c6740" fill-opacity="0.501961" />
<path d="M 128 20 L 129 -16 L 138 4 Z" fill="#453830" fill-opacity="0.501961" />
<path d="M 6 17 L -16 16 L -16 25 Z" fill="#3a3126" fill-opacity="0.501961" />
<path d="M 102 136 L 102 140 L 97 138 Z" fill="#35521d" fill-opacity="0.501961" />
<path d="M 10 95 L 22 81 L 35 82 Z" fill="#566e3f" fill-opacity="0.501961" />
<path d="M 141 95 L 136 97 L 137 99 Z" fill="#8f805f" fill-opacity="0.501961" />
<path d="M 35 42 L 20 38 L 38 29 Z" fill="#6f804f" fill-opacity="0.501961" />
<path d="M 34 40 L 40 44 L 49 42 Z" fill="#6f7d4d" fill-opacity="0.501961" />
<path d="M 43 51 L 54 47 L 40 45 Z" fill="#d9c9b5" fill-opacity="0.501961" />
<path d="M 53 104 L 67 91 L 59 107 Z" fill="#5b7445" fill-opacity="0.501961" />
<path d="M 102 3 L 91 -16 L 104 -10 Z" fill="#877156" fill-opacity="0.501961" />
<path d="M 151 35 L 153 38 L 150 44 Z" fill="#855b53" fill-opacity="0.501961" />
<path d="M 144 55 L 151 52 L 137 49 Z" fill="#667e4b" fill-opacity="0.501961" />
<path d="M 91 97 L 79 92 L 91 92 Z" fill="#597241" fill-opacity="0.501961" />
<path d="M -6 38 L 12 43 L 3 37 Z" fill="#d5c4ae" fill-opacity="0.501961" />
<path d="M 158 28 L 153 30 L 156 22 Z" fill="#d0c3ce" fill-opacity="0.501961" />
<path d="M 212 57 L 225 47 L 203 48 Z" fill="#606d45" fill-opacity="0.501961" />
<path d="M 83 81 L 88 88 L 68 87 Z" fill="#456532" fill-opacity="0.501961" />
<path d="M 166 69 L 162 67 L 162 69 Z" fill="#7b6a60" fill-opacity="0.501961" />
<path d="M 55 119 L 51 130 L 39 131 Z" fill="#476130" fill-opacity="0.501961" />
<path d="M 50 -1 L 47 2 L 42 0 Z" fill="#69644c" fill-opacity="0.501961" />
<path d="M 146 22 L 142 27 L 143 29 Z" fill="#636c46" fill-opacity="0.501961" />
<path d="M 58 3 L 61 -16 L 82 2 Z" fill="#36382b" fill-opacity="0.501961" />
<path d="M 154 34 L 166 37 L 161 38 Z" fill="#383d4b" fill-opacity="0.501961" />
<path d="M 117 18 L 108 21 L 110 24 Z" fill="#596742" fill-opacity="0.501961" />
<path d="M 172 26 L 167 14 L 162 16 Z" fill="#747256" fill-opacity="0.501961" />
<path d="M 104 105 L 142 114 L 125 104 Z" fill="#5b723f" fill-opacity="0.501961" />
<path d="M 163 74 L 162 65 L 156 70 Z" fill="#c6b6a6" fill-opacity="0.501961" />
<path d="M 201 116 L 213 108 L 202 73 Z" fill="#d1c0ab" fill-opacity="0.501961" />
<path d="M 72 56 L 89 53 L 68 50 Z" fill="#dfcebb" fill-opacity="0.501961" />
<path d="M 144 126 L 135 136 L 138 128 Z" fill="#7f7354" fill-opacity="0.501961" />
<path d="M 59 125 L 80 133 L 61 158 Z" fill="#456230" fill-opacity="0.501961" />
<path d="M 90 6 L 97 5 L 97 3 Z" fill="#8d7757" fill-opacity="0.501961" />
<path d="M 166 68 L 171 74 L 191 71 Z" fill="#d2bfaa" fill-opacity="0.501961" />
<path d="M 136 91 L 146 91 L 147 97 Z" fill="#667743" fill-opacity="0.501961" />
<path d="M 129 118 L 129 121 L 138 119 Z" fill="#62693f" fill-opacity="0.501961" />
<path d="M 121 34 L 122 37 L 122 32 Z" fill="#c6a18a" fill-opacity="0.501961" />
<path d="M 137 61 L 136 65 L 151 68 Z" fill="#d8c8b4" fill-opacity="0.501961" />
<path d="M 110 58 L 106 64 L 124 61 Z" fill="#dacab7" fill-opacity="0.501961" />
<path d="M 225 85 L 233 84 L 228 83 Z" fill="#bfa891" fill-opacity="0.501961" />
<path d="M 152 135 L 160 135 L 148 139 Z" fill="#776e4c" fill-opacity="0.501961" />
<path d="M 223 60 L 217 71 L 215 64 Z" fill="#506635" fill-opacity="0.501961" />
<path d="M 39 6 L 35 -15 L 31 10 Z" fill="#5c5247" fill-opacity="0.501961" />
<path d="M 131 96 L 138 100 L 129 102 Z" fill="#697345" fill-opacity="0.501961" />
<path d="M 187 153 L 185 138 L 192 150 Z" fill="#948465" fill-opacity="0.501961" />
<path d="M 46 15 L 44 16 L 43 15 Z" fill="#707064" fill-opacity="0.501961" />
<path d="M 238 16 L 231 2 L 234 17 Z" fill="#4d4537" fill-opacity="0.501961" />
<path d="M 160 17 L 154 18 L 157 15 Z" fill="#a46656" fill-opacity="0.501961" />
<path d="M 82 4 L 84 14 L 77 5 Z" fill="#4e473a" fill-opacity="0.501961" />
<path d="M 162 52 L 156 55 L 156 53 Z" fill="#1e242c" fill-opacity="0.501961" />
<path d="M 140 24 L 156 18 L 149 15 Z" fill="#6e7150" fill-opacity="0.501961" />
<path d="M 136 113 L 134 118 L 132 117 Z" fill="#8c765a" fill-opacity="0.501961" />
<path d="M 86 119 L 88 116 L 97 120 Z" fill="#3f5d2c" fill-opacity="0.501961" />
<path d="M 47 35 L 27 29 L 50 28 Z" fill="#6b7848" fill-opacity="0.501961" />
</g>
</svg>
